<svg xmlns="http://www.w3.org/2000/svg" viewBox="0 0 32 32">
  <defs>
    <linearGradient id="g" x1="0%" y1="0%" x2="100%" y2="100%">
      <stop offset="0%" style="stop-color:#22c55e"/>
      <stop offset="100%" style="stop-color:#15803d"/>
    </linearGradient>
  </defs>
  <path d="M16 2C10 2 4 8 4 16c0 2 .5 4 1.5 5.5C7 18 10 14 16 12c-4 4-6 8-6.5 12.5C11 27 13.5 28 16 28c8 0 12-8 12-16C28 6 22 2 16 2z" fill="url(#g)"/>
  <path d="M16 12c-6 2-9 6-10.5 9.5" stroke="#dcfce7" stroke-width="1.5" fill="none" stroke-linecap="round"/>
  <path d="M16 12c-2 4-3 8-3.5 12" stroke="#dcfce7" stroke-width="1" fill="none" stroke-linecap="round"/>
</svg>