<svg xmlns="http://www.w3.org/2000/svg" viewBox="0 0 511.296 461.62"><path d="M211.61 488.274c-12.068-3.088-23.46-8.384-33.68-15.657l-6.179-4.398H99.229c-47.384 0-74.237-.368-77.472-1.062-15.511-3.327-23.239-16.902-18.165-31.91 5.385-15.928 16.315-29.173 33.395-40.468 16.722-11.059 23.917-19.711 29.298-35.232 2.651-7.646 2.728-8.526 3.294-37.828l.58-30 2.887-5.938c3.805-7.827 10.128-13.987 18.363-17.888l6.7-3.174 29.206-.5 29.205-.5-33.705-9.906c-18.538-5.448-34.858-10.478-36.266-11.178-3.469-1.723-8.538-7.032-9.935-10.405-.958-2.313-2.39-3.128-8.824-5.021-15.672-4.612-25.7-11.653-33.354-23.418-5.557-8.543-8.005-17.137-7.997-28.072.006-7.952.606-10.978 5.145-25.977 5.894-19.473 9.016-25.558 17.298-33.712 11.164-10.992 19.771-13.747 48.045-15.378l11.817-.681 2.291-5.18c3.072-6.946 7.837-12.165 13.922-15.248 5.718-2.898 14.978-4.104 19.475-2.536 2.782.97 4.127.402 17.843-7.536 15.745-9.112 18.988-10.043 22.557-6.474 2.36 2.36 2.8 7.285.858 9.625-.689.83-5.093 3.665-9.787 6.3l-8.535 4.79 7.37 2.249c13.542 4.13 10.893 4.843 36.393-9.797 12.638-7.255 25.228-14.257 27.978-15.559 17.062-8.077 35.844 7.286 31.13 25.462-1.929 7.436-5.499 11.354-15.618 17.145-4.956 2.836-9.012 5.368-9.012 5.625 0 .258 2.363 2.88 5.25 5.825l5.25 5.357 7.712-4.467c15.102-8.75 22.129-19.81 22.129-34.833 0-10.63-2.725-17.641-9.848-25.334-7.36-7.95-14.54-11.383-24.993-11.95-10.39-.564-13.592.399-28 8.426-12.56 6.998-16.145 7.894-19.487 4.87-2.547-2.305-2.666-7.859-.221-10.304 2.618-2.618 22.88-13.742 28.708-15.76 6.486-2.247 20.535-2.998 27.812-1.487 8.842 1.835 18.85 7.36 25.65 14.16 10.79 10.79 17.164 27.968 15.54 41.879-2.2 18.834-11.489 32.337-29.634 43.078-4.877 2.887-8.868 5.378-8.868 5.536s.472 2.488 1.05 5.178l1.048 4.89 15.886 4.66c8.738 2.561 16.366 4.658 16.952 4.658.585 0 1.069-.788 1.074-1.75.019-3.377 4.86-12.12 9.007-16.267 6.159-6.158 13.732-9.306 22.43-9.322 8.621-.016 13.78 2.022 16.528 6.529 2.735 4.485 2.582 6.595-1.475 20.38-1.925 6.543-3.5 12.375-3.5 12.961s3.136 1.99 6.97 3.119l6.968 2.052 1.564-4.706c2.268-6.829 6.803-13.48 11.522-16.899 11.989-8.684 30.7-8.517 36.09.323 2.579 4.227 2.408 6.342-1.614 20.009-1.925 6.542-3.5 12.465-3.5 13.162s2.459 1.981 5.463 2.855 6.109 1.836 6.897 2.138c1.019.391 1.909-.876 3.07-4.372 4.97-14.961 16.154-23.24 31.331-23.19 8.767.028 14.283 2.443 16.565 7.252.921 1.94 1.668 4.36 1.66 5.377s-2.22 9.236-4.914 18.265l-4.899 16.416 5.664 6.34c3.115 3.488 6.125 6.166 6.689 5.952 4.035-1.532 13.738-2.753 17.925-2.257 17.538 2.077 32.839 20.79 27.022 33.05-2.265 4.772-4.881 6.02-20.223 9.651-17.299 4.094-16.25 3.648-16.25 6.91 0 1.564-.876 5.659-1.947 9.1l-1.947 6.257 4.877 5.336c6.778 7.416 9.346 14.533 8.779 24.329-.522 9.025-3.613 15.826-9.687 21.313-3.468 3.133-4.777 3.687-8.722 3.687-4.542 0-4.867-.221-14.985-10.177l-10.342-10.177-4.86 2.276c-2.674 1.253-7.742 3.061-11.264 4.02l-6.402 1.742-1.736 5.408c-3.627 11.298-5.233 14.496-9.681 19.277-4.435 4.767-12.676 9.601-16.4 9.621-2.153.012-1.758 1.828 2.065 9.51 5.272 10.59 11.1 16.522 25.66 26.117 15.457 10.185 25.65 21.917 31.839 36.647 5.058 12.04 3.603 21.755-4.409 29.435-6.998 6.708-7.403 6.768-48.108 7.107l-36.77.307-2.98-2.98c-3.511-3.51-3.739-5.898-.907-9.498l2.073-2.635h34.96c36.488 0 39.414-.303 42.84-4.434 2.347-2.83 1.51-7.907-2.594-15.721-4.987-9.495-14.418-19.419-24.678-25.968-4.496-2.869-10.133-6.807-12.527-8.752-6.169-5.01-14.577-16.117-18.568-24.528-6.39-13.464-6.807-16.178-7.477-48.597-.577-27.92-.729-29.723-2.827-33.654-2.814-5.272-8.313-9.824-13.63-11.283-3.02-.828-38.214-1.059-129.723-.85l-125.579.287-4.877 3.015c-3.55 2.195-5.637 4.47-7.671 8.364l-2.795 5.35-.035 24.635c-.037 26.563-.959 34.725-5.236 46.377-5.806 15.817-15.839 27.657-33.28 39.272-6.456 4.299-13.493 9.96-16.31 13.12-5.468 6.135-13.139 20.135-13.139 23.98 0 3.528 2.647 7.068 6.216 8.312 3.145 1.096 142.784 1.635 142.784.55 0-.287-2.925-13.655-6.5-29.704-3.575-16.05-6.5-30.135-6.5-31.302 0-2.91 4.05-6.47 7.36-6.47 5.841 0 6.613 2.02 14.534 38 8.386 38.098 7.12 35.46 20.384 42.527 16.957 9.036 32.584 11.535 47.24 7.554 9.55-2.594 22.854-8.96 27.977-13.389l3.704-3.202 5.79-25.995c3.185-14.297 6.567-29.513 7.517-33.813 2.332-10.564 6.365-13.962 12.608-10.62 4.29 2.296 4.127 4.45-2.652 34.88-3.554 15.956-6.462 29.697-6.462 30.535 0 1.32 3.062 1.524 23 1.524 21.667 0 23.116.116 25 2 2.527 2.526 2.567 7.078.09 10.139-1.91 2.36-1.921 2.36-28.589 2.658l-26.679.297-4.761 3.764c-6.533 5.163-18.874 11.394-29.06 14.671-11.487 3.696-27.075 4.322-38 1.526m179.282-144.432c1.77-.757 4.437-2.676 5.929-4.264 2.509-2.673 5.788-9.955 5.788-12.855 0-.715-2.444-1.73-5.75-2.389-3.162-.63-6.762-1.415-8-1.746-2.238-.6-2.25-.545-2.25 11.014 0 6.39.24 11.617.533 11.617.292 0 1.98-.62 3.75-1.377m78.3-25.784c2.293-4.433 1.553-13.436-1.451-17.655-1.247-1.751-2.601-3.184-3.009-3.184s-2.912 2.514-5.566 5.588l-4.824 5.588 6.355 6.412c3.495 3.526 6.469 6.412 6.608 6.412.14 0 .988-1.422 1.887-3.16m-46.514-9.45c22.012-6.526 37.143-25.459 38.644-48.354 1.287-19.627-9.963-39.933-27.253-49.191-3.922-2.1-160.412-49.647-167.855-51-1.57-.285-2.226.829-3.825 6.497-1.061 3.763-1.672 7.1-1.358 7.413.314.315 36.01 11.04 79.325 23.835 48.96 14.463 81.098 24.458 84.952 26.42 10.73 5.463 18.037 15.505 20.28 27.873 2.804 15.46-5.84 31.59-20.762 38.745-8.4 4.028-20.614 4.42-32.052 1.028l-8.335-2.472.598 2.383c.329 1.31.882 5.1 1.229 8.422l.631 6.04 5.606 1.558c3.084.858 6.056 1.716 6.606 1.907 3.031 1.056 18.77.319 23.569-1.104m-4.569-31.268c8.383-3.846 12.798-10.577 12.92-19.7.067-5.1-.406-6.863-2.943-10.968-5.588-9.04-4.498-8.625-86.551-32.898-41.484-12.272-77.728-23-80.541-23.84l-5.116-1.528-6.297 21.41c-3.464 11.776-6.03 21.677-5.704 22.004.327.326 35.838 11.077 78.913 23.89 84.968 25.274 86.579 25.64 95.32 21.63m-201.86-14.581c1.147-.804 2.578-2.716 3.18-4.25.603-1.535 7.527-24.39 15.388-50.79 14.248-47.851 14.292-48.031 14.286-58-.008-11.743-1.73-16.547-8.61-24.01-4.987-5.41-8.718-7.491-18.384-10.252-3.85-1.1-23.92-7.003-44.601-13.119s-38.914-11.12-40.518-11.12c-5.387 0-14.46 8.397-11.81 10.93.511.49 11.28 3.95 23.93 7.688 22.717 6.716 23.057 6.857 27.666 11.46 11.044 11.03 8.34 28.505-5.476 35.39-7.603 3.788-11.543 3.357-36.229-3.967-12.05-3.575-22.392-6.5-22.984-6.5-.591 0-2.001 3.142-3.132 6.983l-2.057 6.984 8.106 2.424c42.516 12.716 39.765 11.695 44.633 16.572 9.28 9.3 9.277 21.61-.009 31.18-4.662 4.805-9.385 6.84-15.894 6.851-1.856.003-13.196-2.92-25.2-6.494-12.004-3.575-22.457-6.5-23.23-6.5-.878 0-2.207 2.712-3.552 7.25-2.733 9.219-2.769 13.873-.126 16.265 2.058 1.863 115.226 36.162 120.01 36.373 1.39.062 3.466-.545 4.613-1.348zm-22.14-61.406c-7.72-3.516-13.478-12.271-13.494-20.518-.023-11.672 10.954-22.616 22.682-22.616 5.572 0 12.049 2.99 16.177 7.469 11.087 12.028 6.405 30.63-9.18 36.475-4.266 1.6-11.711 1.227-16.185-.81m14.186-15.309c4.808-4.516 1.331-12.825-5.366-12.825-3.18 0-7.32 4.242-7.32 7.5 0 3.41 4.167 7.5 7.64 7.5 1.503 0 3.773-.979 5.046-2.175m88.814 77.605c-2.618-1.079-58.035-17.223-58.282-16.979-.155.154-1.123 3.22-2.15 6.812-1.028 3.594-2.168 7.48-2.535 8.635l-.667 2.102 32.317-.08c17.775-.043 31.867-.264 31.317-.49m190.287-17.569c4.792-1.176 9.097-2.482 9.566-2.902 1.453-1.303-3.511-6.858-8.126-9.092-3.465-1.677-5.468-1.999-9.483-1.523-2.8.331-5.413.952-5.808 1.38-1.17 1.265 2.294 14.276 3.8 14.276.736 0 5.258-.963 10.05-2.139M77.63 206.643c1.077-3.765 1.625-7.145 1.218-7.512-.407-.366-3.143-1.447-6.08-2.4-9.821-3.187-16.107-11.185-16.124-20.512-.009-5.309 6.987-29.682 9.848-34.313 4.221-6.829 8.38-8.69 22.578-10.099l10.96-1.088 2.261-7.445c1.243-4.095 2.078-7.628 1.856-7.85-.223-.223-6.847.115-14.722.75-12.078.972-15.255 1.59-20.317 3.943-7.035 3.273-13.713 9.616-17.046 16.194-2.41 4.754-8.492 24.22-10.467 33.495-2.82 13.249 4.682 30.1 16.71 37.534 3.244 2.005 16.47 6.962 17.085 6.404.156-.14 1.163-3.336 2.24-7.101m71.524-6.879c3.061-3.061 3.142-6.955.204-9.866-2.7-2.676-45.334-15.578-46.593-14.1-1.282 1.506-4.367 12.544-3.693 13.218 1.069 1.069 41.89 13 44.832 13.104 1.732.061 3.73-.835 5.25-2.356m295.884-11.795c1.604-5.638 3.112-10.813 3.35-11.5.689-1.983-6.313-1.529-10.667.692-4.206 2.146-6.53 5.153-8.671 11.225-1.32 3.74-1.29 4.06.434 4.51 1.02.267 4.053 1.538 6.74 2.825 2.686 1.287 5.112 2.375 5.39 2.419.28.043 1.82-4.534 3.424-10.171m-355.217-22.5c3.046-10.313 5.426-18.881 5.289-19.041-.742-.865-13.864 1.296-15.046 2.478-1.668 1.668-7.534 20.148-8.194 25.815-.52 4.468.963 6.44 6.238 8.288 6.045 2.119 5.797 2.489 11.713-17.54m297.88 3.75c1.567-5.225 2.638-10.099 2.38-10.83-.635-1.793-5.732-.687-11.127 2.414-4.336 2.492-8.825 9.69-8.168 13.098.325 1.69 9.637 5.344 12.693 4.98.817-.096 2.522-3.998 4.221-9.662m-57.765-17.81c1.649-5.609 2.685-10.51 2.303-10.893-.988-.988-9.37 1.414-12.114 3.472-3.244 2.434-6.37 7.246-7.11 10.948-.625 3.124-.585 3.16 5.732 5.116 3.499 1.083 6.773 1.877 7.276 1.763.503-.113 2.264-4.796 3.913-10.405m-163.642-9.365c1.317-1.237 2.314-3.344 2.314-4.889 0-5.431-2.26-6.637-25.25-13.471-11.962-3.556-22.178-6.465-22.702-6.465-1.088 0-5.26 13.121-4.434 13.947 1.078 1.078 41.962 12.925 44.822 12.988 1.71.038 3.902-.843 5.25-2.11m74.89-48.314c14.849-8.442 16.88-10.797 14.04-16.287-3.404-6.584-5.852-5.984-28.384 6.955l-19.468 11.18 8.868 2.727c4.878 1.5 9.522 2.77 10.32 2.82.8.052 7.38-3.276 14.625-7.395" fill="currentColor" transform="translate(-2.042 -28.392)"/></svg>