<svg xmlns="http://www.w3.org/2000/svg" xml:space="preserve" viewBox="0 0 125.865 125.921"><path d="M62.793 210.186c-6.555-1.384-11.742-5.943-13.667-12.012-1.412-4.456-1.07-9.073.992-13.359.861-1.79 1.519-2.675 3.358-4.524 3.855-3.876 8.044-5.508 13.375-5.213 1.469.082 3.23.323 3.915.536l1.246.388 10.528-5.647 10.53-5.647.075-2.362.075-2.362-1.764-.113c-2.872-.183-2.753.24-2.753-9.75v-8.418l.698-.548c.688-.542.904-.549 17.294-.549s16.606.007 17.295.549l.697.548v8.539c0 9.974.154 9.444-2.793 9.632l-1.705.108v3.929l2.141-.077 2.142-.077 17.712-39.158c10.008-22.128 17.95-39.36 18.26-39.621.488-.411 1.217-.463 6.485-.463h5.936l.65.649c.793.794.828 1.697.1 2.622l-.548.697h-9.738l-.073 36.447-.074 36.446-.703 2.545c-2.098 7.597-7.04 13.667-13.98 17.168-2.077 1.048-4.856 2.017-6.483 2.261-.658.1-1.253.272-1.323.386s.164.843.52 1.623c1.555 3.396 2.005 8.113 1.108 11.603-2.378 9.254-11.636 15.044-20.942 13.097-2.355-.492-5.62-2.109-7.724-3.823l-1.639-1.336H78.86l-1.333 1.199c-1.688 1.517-4.045 2.826-6.417 3.562-2.098.651-6.424.924-8.317.525m5.934-4.097a13.72 13.72 0 0 0 10.776-11.482c1.304-8.947-6.49-16.735-15.443-15.43-5.85.852-10.307 5.125-11.518 11.039-.757 3.695.15 7.55 2.512 10.668q3.106 4.102 8.117 5.21c2.101.465 3.327.464 5.556-.006zm-4.423-3.314c-5.473-.922-9.262-6.208-8.38-11.688.687-4.261 4.052-7.648 8.397-8.451 3.26-.603 6.269.397 8.796 2.925 2.528 2.528 3.529 5.536 2.926 8.796-.808 4.372-4.185 7.707-8.515 8.41-.941.152-1.77.264-1.843.248a87 87 0 0 0-1.381-.24m4.159-4.46c2.306-1.062 3.595-3.066 3.607-5.607.017-3.604-2.514-6.117-6.146-6.1-3.424.017-6.04 2.637-6.054 6.063-.015 3.466 2.629 6.132 6.08 6.132.854 0 1.891-.201 2.513-.488m59.02 7.888c5.077-.92 9.5-5.029 10.842-10.069.807-3.03.338-7.089-1.14-9.867-1.005-1.888-4.095-4.9-5.933-5.78-3.584-1.72-7.566-1.922-10.997-.559-2.282.906-3.63 1.833-5.251 3.61-2.43 2.661-3.546 5.556-3.546 9.191 0 3.89 1.178 6.728 3.965 9.55 3.273 3.315 7.618 4.729 12.06 3.924m-4.12-3.46c-5.847-.94-9.725-7.09-8.08-12.813 2.335-8.122 13.007-10.092 17.98-3.318a10.25 10.25 0 0 1 1.95 6.652c-.347 6.117-5.772 10.458-11.85 9.48m4.044-4.285c2.378-.997 3.743-3.085 3.743-5.729 0-3.59-2.52-6.123-6.088-6.123-2.65 0-4.82 1.537-5.803 4.113-1.098 2.875.49 6.438 3.443 7.728 1.042.455 3.63.461 4.705.01m-18.733.952a24 24 0 0 1-.938-3.046l-.332-1.524-11.907.07-11.907.068-.329 1.588c-.18.873-.578 2.162-.883 2.866-.304.703-.554 1.328-.554 1.389s6.178.11 13.728.11h13.727zm-.979-10.187c.96-4.764 4.046-9.147 8.236-11.692 1.36-.826 4.476-1.982 6.44-2.388l.728-.151v-7.134H95.743l-8.48 4.536c-4.665 2.494-8.991 4.83-9.614 5.189l-1.132.654 2.084 2.17c2.335 2.432 4.015 5.388 4.553 8.01.173.843.358 1.683.41 1.865.075.258 2.699.33 11.974.33h11.878zm35.38-10.27c3.17-.979 6.215-2.697 8.6-4.851 3.476-3.14 5.489-6.435 6.967-11.403.543-1.826.552-2.301.621-33.867.068-31.294.059-31.994-.42-31.088-.27.509-7.529 16.484-16.132 35.499l-15.643 34.573v7.176l.728.16c3.492.77 6.067 1.902 8.136 3.578l1.323 1.071 1.984-.138c1.091-.076 2.818-.395 3.836-.71m-26.91-17.114.078-1.918H97.17v1.808c0 .994.081 1.889.18 1.987.099.1 4.355.149 9.459.11l9.279-.069zm4.553-11.708v-5.556H92.672v11.112h28.046zm-23.38 2.098c-.641-.505-.697-.706-.697-2.514 0-1.612.095-2.06.53-2.494.8-.801 2.203-.706 2.916.198.491.624.559.988.471 2.546-.084 1.511-.205 1.901-.716 2.315-.799.647-1.638.63-2.504-.051m8.115-.091c-.685-.59-.742-.785-.74-2.538 0-1.675.075-1.96.624-2.404.824-.667 2.2-.653 2.817.029.604.667.844 3.14.408 4.193-.303.732-1.224 1.359-1.997 1.359-.203 0-.704-.288-1.112-.64m8.47.324c-.84-.406-1.226-1.582-1.084-3.302.095-1.143.267-1.613.724-1.983.774-.627 1.905-.619 2.694.02.551.447.625.729.625 2.405 0 1.752-.058 1.947-.743 2.536-.799.688-1.31.763-2.215.325m-39.375-15.908c-5.676-2.468-8.533-4.333-11.58-7.563-5.173-5.484-7.31-13.32-6.176-22.648.524-4.314.807-5.315 1.656-5.871.883-.579 2.062-.274 5.851 1.514 5.364 2.53 10.602 6.596 13.621 10.574 1.601 2.11 3.43 5.854 4.071 8.335.75 2.904.636 8.243-.247 11.514-1.207 4.473-1.883 5.57-3.408 5.538-.337-.007-2.041-.634-3.788-1.393m-1.004-5.142c-.06-.11-1.913-3.424-4.117-7.367s-4.007-7.43-4.007-7.751c0-.833 1.147-1.882 2.059-1.882.448 0 .984.244 1.309.596.302.327 2.42 3.929 4.705 8.003 2.286 4.075 4.25 7.51 4.364 7.632.656.708.767-6.523.137-8.955-1.035-3.994-3.877-8.105-7.761-11.226-2.348-1.886-7.291-4.882-8.56-5.186-.696-.168-.706-.15-.893 1.595-.281 2.627.024 8.737.536 10.716 1.437 5.558 5.15 10.151 10.834 13.402 1.098.628 1.59.777 1.394.423m20.716-13.63c-1.329-.657-2.632-4.63-2.641-8.053-.018-6.221 4.042-11.896 11.107-15.527 3.104-1.595 4.071-1.881 5.02-1.488.95.393 1.237 1.12 1.622 4.104.601 4.664-.245 9.64-2.159 12.7-1.98 3.166-5.532 5.946-9.754 7.636-1.323.53-2.434.96-2.47.959-.035-.002-.361-.151-.725-.331m4.653-5.764c4.383-2.507 6.491-6.217 6.558-11.54.018-1.479-.052-2.775-.156-2.88-.367-.367-4.064 2.108-5.916 3.961-3.311 3.313-4.415 6.965-3.38 11.184.124.507.23.546.845.312.387-.147 1.309-.614 2.049-1.037" fill="currentColor" transform="translate(-48.271 -84.515)"/></svg>