<svg xmlns="http://www.w3.org/2000/svg" xml:space="preserve" viewBox="0 0 135.382 135.289"><path d="M90.889 220.11c-15.756-.99-30.536-4.02-40.618-8.327-7.636-3.261-12.426-7.023-14.631-11.487-.937-1.898-.975-2.082-.975-4.765 0-2.457.082-2.964.689-4.245 1.895-4.002 5.3-7.058 11.852-10.64l.829-.453-.07-7.051-.071-7.051-1.984-.575c-2.888-.838-4.641-1.89-6.88-4.128-6.655-6.656-8.672-20.664-5.121-35.576 2.036-8.551 6.162-17.103 11.653-24.155 1.944-2.496 2.685-2.975 4.598-2.975 1.768 0 2.948.678 4.48 2.58 1.667 2.065 5.298 7.615 6.065 9.268.353.76.714 1.38.802 1.38.09 0 .787-1.342 1.55-2.983 2.423-5.206 7.76-13.07 9.654-14.225 1.228-.748 3.53-.708 4.704.083 2 1.348 6.039 7.16 8.85 12.737 4.534 8.997 6.732 18.04 6.738 27.725.004 6.82-1.072 12.208-3.371 16.88-2.222 4.515-6.446 8.049-10.777 9.018l-1.46.327v10.767l2.256-.174c2.119-.162 2.296-.136 2.91.442.895.84.9 2.317.01 3.153-.5.469-1.157.669-2.893.88l-2.248.272-.083 4.218-.084 4.217-.774.665c-.623.536-.958.636-1.72.514-1.685-.27-1.872-.777-1.872-5.091 0-2.094-.043-3.808-.096-3.808-.48 0-7.274 1.499-9.561 2.109-2.367.631-8.227 2.53-10.232 3.315-.373.146-.455.688-.529 3.484-.086 3.252-.1 3.322-.83 3.948-.97.834-2.133.83-2.973-.011-.582-.582-.65-.871-.65-2.778 0-1.171-.104-2.129-.23-2.129-.554 0-4.494 2.83-5.905 4.241-5.584 5.584-3.042 11.306 7.375 16.604 8.802 4.477 21.263 7.508 36.86 8.966 6.062.567 22.233.643 28.046.133 20.362-1.789 35.81-6.08 43.938-12.209.79-.596 1.68-1.146 1.978-1.222.852-.218 1.91.325 2.371 1.216.782 1.512.098 2.483-3.36 4.77-9.206 6.088-24.886 10.293-44.398 11.905-4.631.383-19.216.53-23.812.242m-27.252-45.204c2.255-.563 5.264-1.23 6.686-1.482l2.584-.459-.07-5.702-.072-5.701-1.513-.344c-1.753-.398-4.397-1.668-5.842-2.807-.552-.435-1.036-.747-1.074-.693-.04.054-.626.89-1.305 1.856-.679.968-1.862 2.263-2.63 2.88-1.729 1.388-5.162 3.085-6.713 3.317l-1.164.175v12.339l3.506-1.178c1.928-.647 5.351-1.638 7.607-2.2m-15.61-17.417v-3.899l-3.36-3.368c-3.081-3.087-3.361-3.448-3.361-4.337 0-1.203 1.046-2.224 2.278-2.224.688 0 1.292.466 3.758 2.899l2.938 2.899 2.967-2.935c2.921-2.888 2.984-2.932 3.967-2.775 1.234.198 1.925 1 1.925 2.233 0 .85-.322 1.266-3.308 4.283l-3.307 3.343v7.838l.728-.174c5.197-1.237 8.935-7.013 10.108-15.62.371-2.722.377-9.763.01-12.756-1.108-9.052-4.886-18.605-10.443-26.41-.829-1.163-1.796-2.413-2.15-2.776l-.643-.66-.661.792c-.364.436-1.62 2.208-2.79 3.937-7.416 10.959-11.043 24.635-9.74 36.731.878 8.158 3.736 13.696 8.227 15.943 2.97 1.486 2.856 1.603 2.856-2.964zm24.87-5.448c0-4.688.02-4.867.595-5.4.693-.642 1.36-.784 2.4-.511 1.25.328 1.503 1.404 1.503 6.414v4.403l.728-.173c1.474-.352 3.484-1.565 4.784-2.89 3.704-3.77 5.6-10.08 5.6-18.633 0-10.49-3.068-21.115-8.737-30.254-1.527-2.463-4.422-6.315-4.745-6.315-.281 0-2.687 3.176-4.325 5.711-1.842 2.85-3.97 7.042-5.311 10.466l-1.208 3.08.916 2.718c2.195 6.52 3.038 11.755 3.038 18.886 0 4.948-.484 9.054-1.437 12.184l-.401 1.319.985 1.01c1.018 1.044 4.253 2.834 5.122 2.834.463 0 .493-.293.493-4.849m19.091 59.083c-4.401-.25-5.184-.5-5.499-1.755-.232-.925.149-1.915.96-2.495.62-.444 1.064-.454 7.124-.174 13.422.62 28.983-.776 40.674-3.649 7.055-1.733 13.379-4.254 17.148-6.835 1.967-1.347 2.201-1.406 3.298-.839.851.44 1.077.88 1.077 2.099 0 1.402-2.077 2.99-6.96 5.325-8.497 4.063-21.155 6.927-35.638 8.065-4.982.39-17.326.535-22.184.258m-18.297-2c-4.33-.78-4.995-1.032-5.422-2.048-.43-1.021-.157-1.992.75-2.668l.722-.54 3.629.609c4.812.807 5.52 1.006 6 1.692.877 1.252.068 3.195-1.446 3.475-.364.068-2.269-.167-4.233-.52m7.147-11.689c-1.973-.99-2.7 1.062 11.497-32.488 12.805-30.263 12.868-30.42 12.587-31.536-1.49-5.939.352-12.654 4.769-17.375l1.57-1.68v-2.845c0-1.565.142-3.319.315-3.896.378-1.26 2.27-3.442 3.383-3.903l.8-.332v-6.006c0-6.871.162-7.689 1.906-9.67 2.942-3.342 7.82-3.658 11.09-.718 2.412 2.168 2.47 2.393 2.565 9.884l.083 6.524.764.316c1.095.454 2.628 2.028 3.199 3.285.388.853.492 1.736.496 4.216l.006 3.137 1.81 1.937c3.103 3.323 4.747 7.247 4.985 11.898.093 1.827.011 3.219-.264 4.498l-.4 1.852 12.7 30.03c6.985 16.516 12.761 30.396 12.837 30.844.308 1.835-2.3 3.149-3.614 1.819-.28-.284-1.085-1.866-1.788-3.515l-1.278-2.998-6.814-2.922c-7.636-3.275-8.863-4.091-10.215-6.796-.407-.816-3.93-8.665-7.828-17.443-6.975-15.706-7.098-15.958-7.758-15.792-2.472.62-6.367.621-9.187.002l-.807-.177-7.494 16.89c-4.122 9.289-7.785 17.279-8.141 17.755-1.62 2.168-1.976 2.374-10.4 5.984l-5.953 2.55-1.168 2.841c-1.62 3.943-2.482 4.72-4.253 3.83zm14.578-15.52c1.312-.564 2.617-1.337 3.077-1.823.553-.585 3.02-5.856 8.01-17.117 3.966-8.95 7.309-16.463 7.43-16.698.169-.33-.108-.651-1.222-1.418-.792-.545-2.224-1.823-3.183-2.84-.96-1.016-1.783-1.807-1.831-1.757-.135.141-18.444 43.421-18.593 43.95-.139.494-.403.59 6.312-2.297m62.1.838c-.45-1.055-4.667-11.012-9.37-22.126s-8.611-20.267-8.684-20.34-.459.27-.857.76c-1.108 1.367-3.126 3.215-4.307 3.943-.584.36-1.065.771-1.069.913s3.295 7.702 7.33 16.801c5.039 11.362 7.587 16.81 8.136 17.396.558.595 2.078 1.407 5.032 2.687 2.329 1.01 4.318 1.846 4.42 1.86.103.013-.181-.839-.631-1.894m-30.512-39.415c8.934-1.937 13.904-12.46 9.755-20.65l-.7-1.382-.306 1.203c-.33 1.3-1.161 2.796-1.948 3.508-.437.396-.462.614-.224 1.928.324 1.79-.022 4.164-.87 5.962-2.348 4.984-8.36 7.115-13.406 4.753-3.996-1.87-6.444-6.374-5.717-10.516.254-1.442.23-1.594-.331-2.21-.975-1.069-1.496-2.019-1.844-3.366l-.327-1.265-.59 1.146c-.82 1.594-1.616 4.871-1.612 6.636.01 3.516 1.532 7.303 3.995 9.935 1.85 1.977 3.505 3.103 5.68 3.862 2.808.98 5.388 1.12 8.445.456m-.784-8.842c2.014-1.045 3.326-3.611 2.929-5.728l-.184-.982h-10.778l-.173 1.028c-.555 3.282 2.486 6.57 5.84 6.314.74-.057 1.805-.341 2.366-.632m4.131-11.494c1.084-.58 1.284-1.74 1.282-7.445 0-2.951-.125-5.812-.277-6.358-.466-1.679-.94-1.786-7.89-1.786h-6.078l-.814.685-.814.685v13.206l.649.65.65.649h6.379c4.064 0 6.573-.104 6.913-.286m-3.479-25.74c0-5.332-.031-5.693-.552-6.355-1.168-1.485-2.917-1.87-4.396-.967-1.542.94-1.666 1.502-1.666 7.538v5.437h6.614z" fill="currentColor" transform="translate(-32.18 -84.973)"/></svg>