<svg xmlns="http://www.w3.org/2000/svg" xml:space="preserve" viewBox="0 0 132.034 144.357"><path d="M87.324 224.817c-1.032-.812-.966-1.563.54-6.116 2.787-8.426 4.206-14.865 4.773-21.662l.164-1.976-8.216-11.853c-4.519-6.52-8.478-12.362-8.798-12.983-.64-1.24-.763-3.675-.251-4.994.49-1.267 2.255-2.987 3.585-3.495 1.631-.623 4.093-.421 5.58.456.776.459 2.569 2.637 6.335 7.696 4.673 6.28 5.275 6.982 5.459 6.378.113-.373.669-4.097 1.235-8.276 1.14-8.417 1.443-9.422 3.337-11.043 1.106-.947 3.296-1.82 4.563-1.82 1.313 0 3.609.92 4.657 1.868 1.896 1.713 2.215 2.756 2.979 9.732.377 3.449.742 6.326.81 6.393.067.068 3.458-2.27 7.534-5.195s7.84-5.549 8.362-5.829c4.02-2.154 8.81.772 8.818 5.387.002 1.14-.666 2.792-1.494 3.695-.342.373-5.37 4.872-11.172 9.999l-10.551 9.321.155 4.54c.156 4.58.816 9.263 1.915 13.57.869 3.407 2.924 9.423 4.056 11.872 1.218 2.636 1.273 3.54.262 4.335-.733.577-.977.585-17.319.585-16.34 0-16.585-.008-17.318-.585m29.135-5.977c-.477-1.28-1.11-3.015-1.404-3.855-.835-2.382-2.462-9.186-2.94-12.302-.533-3.469-.893-13.392-.51-14.075.148-.266 5.342-4.957 11.541-10.424 7.732-6.819 11.3-10.143 11.363-10.587.051-.356-.119-.97-.377-1.365-.88-1.342-1.615-.948-11.664 6.245-9.96 7.13-10.436 7.382-11.65 6.168-.491-.491-.676-1.593-1.392-8.302-.455-4.255-.962-8.218-1.127-8.807-.317-1.13-1.597-2.172-2.669-2.172s-2.352 1.041-2.667 2.172c-.165.59-.937 5.77-1.716 11.513-1.546 11.401-1.583 11.525-3.38 11.525-.558 0-1.122-.25-1.544-.682-.367-.375-3.493-4.492-6.948-9.149s-6.482-8.621-6.726-8.81c-.655-.509-2.125-.435-2.635.132-1.23 1.365-1.333 1.176 7.584 14.056 4.615 6.666 8.639 12.538 8.943 13.05.485.816.53 1.248.367 3.528-.445 6.244-2.405 15.729-4.528 21.908-.396 1.153-.72 2.2-.72 2.329 0 .128 5.776.233 12.834.233h12.834zm13.093-29.484c-1.087-.135-1.767-.987-1.767-2.214 0-1.376.717-1.814 2.985-1.825 7.061-.036 13.623-3.368 17.185-8.727 2.404-3.616 3.129-7.119 2.301-11.122-.642-3.104-.444-3.445 2.648-4.568 4.539-1.647 7.389-3.585 9.951-6.766 2.995-3.717 4.305-7.809 4.065-12.693-.205-4.175-1.275-7.312-3.477-10.197-1.779-2.33-1.78-2.386-.01-5.467 1.925-3.355 1.292-7.75-1.54-10.698-1.813-1.887-4.236-2.891-7.39-3.06-3.059-.166-3.378-.37-4.015-2.575-1.427-4.942-5.49-9.577-10.213-11.65-4.067-1.785-9.021-2.175-13.385-1.055-2.993.768-3.331.622-4.738-2.047-1.364-2.587-4.914-6.015-7.632-7.369-3.026-1.508-5.248-2.023-8.749-2.03-3.657-.005-5.334.384-8.684 2.016-4.4 2.144-7.15 5.345-9.333 10.866-.166.419-.615.967-.997 1.218-.648.424-.899.412-3.588-.163-11.791-2.525-22.77 3.74-26.288 15.002-.702 2.247-1.115 2.595-3.439 2.9-4.549.595-8.067 4.321-8.297 8.787-.145 2.818.607 4.663 2.932 7.197 1.227 1.337 1.814 2.207 1.814 2.688 0 .493-.627 1.381-2.047 2.9-3.129 3.346-4.444 6.506-4.444 10.683 0 3.933 1.558 7.57 4.516 10.548 2.067 2.08 4.282 3.359 7.238 4.178 2.758.764 3.146 1.017 3.43 2.239.934 4.005 1.32 5.234 2.2 7.015 3.051 6.177 9.449 10.664 16.624 11.66 1.58.219 2.103.42 2.61 1.008.79.912.802 1.544.05 2.499-.497.633-.802.743-2.045.741-.804 0-2.478-.246-3.72-.545-9.858-2.371-17.33-9.871-19.441-19.514-.124-.564-.434-.811-1.366-1.087-.663-.196-2.307-.923-3.653-1.616-7.951-4.09-12.074-12.698-10.253-21.403.5-2.392 2.24-5.997 3.796-7.863 1.282-1.537 1.32-1.657.707-2.167-.798-.662-2.366-3.642-2.803-5.325-.946-3.654-.277-7.532 1.851-10.718 1.881-2.817 4.601-4.754 7.977-5.682l1.65-.453.795-2.04c2.947-7.577 9.588-13.401 17.796-15.61 1.926-.518 3.134-.642 6.331-.65 2.173-.005 4.6.095 5.394.223l1.443.232.48-1.22c1.758-4.462 6.89-9.25 12.034-11.227 4.392-1.688 10.234-2.048 14.516-.894 5.528 1.49 10.128 4.687 13.184 9.164l1.127 1.65 1.311-.239c.721-.131 3.216-.228 5.545-.215 3.784.02 4.472.102 6.49.77 6.511 2.154 12.417 7.511 14.54 13.188.556 1.487.717 1.681 1.396 1.681 1.417 0 5.134 1.113 6.689 2.002 2.941 1.683 5.156 4.4 6.302 7.731 1.018 2.959.633 7.655-.835 10.194l-.507.876.948 1.523c2.53 4.057 3.662 8.483 3.418 13.36-.18 3.61-.673 5.676-2.051 8.598-2.589 5.487-7.507 10.136-12.894 12.185l-1.621.617.177 2.303c.82 10.68-8.403 20.653-20.493 22.158-2.384.297-3 .309-4.73.094" fill="currentColor" transform="translate(-39.164 -81.045)"/></svg>